<?xml version="1.0" encoding="windows-1252"?>
<!-- Generator: Adobe Illustrator 18.0.0, SVG Export Plug-In . SVG Version: 6.00 Build 0)  -->
<!DOCTYPE svg PUBLIC "-//W3C//DTD SVG 1.1//EN" "http://www.w3.org/Graphics/SVG/1.1/DTD/svg11.dtd">
<svg version="1.1" id="Capa_1" xmlns="http://www.w3.org/2000/svg" xmlns:xlink="http://www.w3.org/1999/xlink" x="0px" y="0px" viewBox="0 0 196.564 196.564" style="enable-background:new 0 0 196.564 196.564;" xml:space="preserve">
<path d="M22.792,142.562c8.548,0,15.992,4.708,19.894,11.669c0.238-0.945,0.398-2.141,0.398-3.668V54.068  c0-17.843,5.313-31.032,16.269-38.518c19.706-13.465,38.735-4.096,38.735-4.096c7.972,3.551,13.53,11.536,13.53,20.826  c0,12.588-10.205,22.794-22.794,22.794c-7.199,0-13.617-3.344-17.796-8.558c-0.387,2.201-0.591,4.726-0.591,7.551v96.495  c0,14.748-6.635,23.401-12.202,28.063c-9.504,7.96-22.147,9.657-31.205,9.657c-3.932,0-27.03-1.051-27.03-22.927  C0,152.767,10.206,142.562,22.792,142.562z M183.036,11.454c0,0-19.03-9.369-38.736,4.096  c-10.956,7.485-16.267,20.675-16.267,38.518v96.495c0,1.527-0.161,2.723-0.4,3.668c-3.901-6.961-11.345-11.669-19.893-11.669  c-12.589,0-22.794,10.205-22.794,22.794c0,21.876,23.101,22.927,27.03,22.927c9.058,0,21.702-1.697,31.205-9.657  c5.566-4.661,12.204-13.314,12.204-28.063V54.068c0-2.824,0.205-5.35,0.591-7.551c4.178,5.214,10.594,8.558,17.796,8.558  c12.588,0,22.792-10.206,22.792-22.794C196.564,22.99,191.007,15.005,183.036,11.454z"/>
<g>
</g>
<g>
</g>
<g>
</g>
<g>
</g>
<g>
</g>
<g>
</g>
<g>
</g>
<g>
</g>
<g>
</g>
<g>
</g>
<g>
</g>
<g>
</g>
<g>
</g>
<g>
</g>
<g>
</g>
</svg>