<svg height="496pt" viewBox="0 0 496 496" width="496pt" xmlns="http://www.w3.org/2000/svg"><path d="m464 389.480469v-234.167969l18.34375 18.34375 11.3125-11.3125-32-32c-3.128906-3.128906-8.183594-3.128906-11.3125 0l-32 32 11.3125 11.3125 18.34375-18.34375v229.328125c-2.625-.375-5.28125-.640625-8-.640625-30.878906 0-56 25.128906-56 56s25.121094 56 56 56 56-25.128906 56-56c0-22.28125-13.113281-41.503906-32-50.519531zm-24 90.519531c-22.054688 0-40-17.945312-40-40s17.945312-40 40-40 40 17.945312 40 40-17.945312 40-40 40zm0 0"/><path d="m32 106.519531v234.167969l-18.34375-18.34375-11.3125 11.3125 32 32c1.558594 1.558594 3.609375 2.34375 5.65625 2.34375s4.097656-.785156 5.65625-2.34375l32-32-11.3125-11.3125-18.34375 18.34375v-229.328125c2.625.375 5.28125.640625 8 .640625 30.878906 0 56-25.121094 56-56s-25.121094-56-56-56-56 25.121094-56 56c0 22.28125 13.113281 41.511719 32 50.519531zm24-90.519531c22.054688 0 40 17.945312 40 40s-17.945312 40-40 40-40-17.945312-40-40 17.945312-40 40-40zm0 0"/><path d="m224 360c0 4.425781 3.585938 8 8 8h32c4.414062 0 8-3.574219 8-8v-10.886719c10.542969-2.480469 20.496094-6.519531 29.695312-12.097656l4.648438 4.640625c3.128906 3.128906 8.183594 3.128906 11.3125 0l24-24c1.503906-1.496094 2.34375-3.527344 2.34375-5.65625s-.839844-4.160156-2.34375-5.65625l-4.640625-4.640625c5.570313-9.207031 9.625-19.160156 12.097656-29.703125h10.886719c4.414062 0 8-3.574219 8-8v-32c0-4.414062-3.585938-8-8-8h-10.894531c-2.472657-10.449219-6.546875-20.367188-12.160157-29.632812l4.710938-4.710938c3.128906-3.128906 3.128906-8.183594 0-11.3125l-24-24c-3.128906-3.128906-8.183594-3.128906-11.3125 0l-4.710938 4.710938c-9.265624-5.613282-19.183593-9.6875-29.632812-12.160157v-10.894531c0-4.414062-3.585938-8-8-8h-32c-4.414062 0-8 3.585938-8 8v10.886719c-10.542969 2.472656-20.496094 6.519531-29.703125 12.097656l-4.640625-4.640625c-3.128906-3.128906-8.183594-3.128906-11.3125 0l-24 24c-3.128906 3.128906-3.128906 8.183594 0 11.3125l4.640625 4.640625c-5.570313 9.207031-9.625 19.160156-12.097656 29.703125h-10.886719c-4.414062 0-8 3.585938-8 8v32c0 4.425781 3.585938 8 8 8h10.894531c2.472657 10.441406 6.546875 20.359375 12.160157 29.625l-4.710938 4.71875c-3.128906 3.128906-3.128906 8.183594 0 11.3125l24 24c3.128906 3.128906 8.183594 3.128906 11.3125 0l4.710938-4.710938c9.265624 5.613282 19.183593 9.6875 29.632812 12.160157zm-26.136719-39.855469c-3.175781-2.214843-7.496093-1.832031-10.222656.902344l-3.640625 3.640625-12.6875-12.6875 3.640625-3.640625c2.734375-2.734375 3.117187-7.046875.910156-10.222656-7.503906-10.785157-12.390625-22.710938-14.535156-35.464844-.648437-3.847656-3.984375-6.671875-7.886719-6.671875h-9.441406v-16h9.441406c3.902344 0 7.238282-2.824219 7.886719-6.671875 2.167969-12.929687 7.039063-24.886719 14.457031-35.535156 2.207032-3.175781 1.832032-7.488281-.914062-10.226563l-3.558594-3.566406 12.6875-12.6875 3.558594 3.558594c2.746094 2.738281 7.050781 3.128906 10.226562.914062 10.65625-7.417968 22.605469-12.289062 35.535156-14.457031 3.855469-.648437 6.679688-3.984375 6.679688-7.886719v-9.441406h16v9.441406c0 3.902344 2.824219 7.238282 6.671875 7.886719 12.761719 2.144531 24.6875 7.03125 35.464844 14.535156 3.183593 2.207031 7.496093 1.832031 10.222656-.910156l3.640625-3.640625 12.6875 12.6875-3.640625 3.640625c-2.734375 2.734375-3.117187 7.046875-.910156 10.222656 7.503906 10.777344 12.390625 22.703125 14.535156 35.464844.648437 3.847656 3.984375 6.671875 7.886719 6.671875h9.441406v16h-9.441406c-3.902344 0-7.238282 2.824219-7.886719 6.671875-2.167969 12.929687-7.039063 24.886719-14.457031 35.535156-2.214844 3.175781-1.832032 7.488281.90625 10.226563l3.558594 3.566406-12.679688 12.6875-3.566406-3.558594c-2.730469-2.730468-7.050782-3.136718-10.234375-.90625-10.640625 7.417969-22.589844 12.273438-35.527344 14.457032-3.847656.640624-6.671875 3.976562-6.671875 7.878906v9.441406h-16v-9.441406c0-3.902344-2.824219-7.238282-6.671875-7.886719-12.753906-2.144531-24.679687-7.03125-35.464844-14.527344zm0 0"/><path d="m320 248c0-39.695312-32.304688-72-72-72s-72 32.304688-72 72c0 39.703125 32.304688 72 72 72s72-32.296875 72-72zm-128 0c0-30.878906 25.121094-56 56-56s56 25.121094 56 56c0 30.871094-25.121094 56-56 56s-56-25.128906-56-56zm0 0"/><path d="m248 432c11.054688 0 20.296875-7.550781 23.070312-17.742188 83-11.378906 144.929688-81.722656 144.929688-166.257812 0-76.710938-51.824219-143.625-126.015625-162.703125l-3.984375 15.496094c67.121094 17.261719 114 77.800781 114 147.207031 0 76.144531-55.519531 139.550781-130.105469 150.265625-3.75-8.386719-12.132812-14.265625-21.894531-14.265625-13.230469 0-24 10.769531-24 24s10.769531 24 24 24zm0-32c4.40625 0 8 3.585938 8 8s-3.59375 8-8 8-8-3.585938-8-8 3.59375-8 8-8zm0 0"/><path d="m96 248c0-76.207031 55.503906-139.558594 130.105469-150.265625 3.742187 8.386719 12.132812 14.265625 21.894531 14.265625 13.230469 0 24-10.769531 24-24s-10.769531-24-24-24c-11.054688 0-20.304688 7.558594-23.070312 17.753906-83.035157 11.367188-144.929688 81.636719-144.929688 166.246094 0 76.703125 51.816406 143.609375 126 162.710938l3.992188-15.503907c-67.121094-17.269531-113.992188-77.808593-113.992188-147.207031zm152-168c4.40625 0 8 3.59375 8 8s-3.59375 8-8 8-8-3.59375-8-8 3.59375-8 8-8zm0 0"/><path d="m162.34375 77.65625 11.3125-11.3125-18.34375-18.34375h229.328125c-.375 2.625-.640625 5.28125-.640625 8 0 30.878906 25.121094 56 56 56s56-25.121094 56-56-25.121094-56-56-56c-22.28125 0-41.511719 13.113281-50.519531 32h-234.167969l18.34375-18.34375-11.3125-11.3125-32 32c-3.128906 3.128906-3.128906 8.183594 0 11.3125zm277.65625-61.65625c22.054688 0 40 17.945312 40 40s-17.945312 40-40 40-40-17.945312-40-40 17.945312-40 40-40zm0 0"/><path d="m333.65625 418.34375-11.3125 11.3125 18.34375 18.34375h-229.328125c.375-2.625.640625-5.28125.640625-8 0-30.871094-25.121094-56-56-56s-56 25.128906-56 56 25.121094 56 56 56c22.28125 0 41.511719-13.113281 50.519531-32h234.167969l-18.34375 18.34375 11.3125 11.3125 32-32c3.128906-3.128906 3.128906-8.183594 0-11.3125zm-277.65625 61.65625c-22.054688 0-40-17.945312-40-40s17.945312-40 40-40 40 17.945312 40 40-17.945312 40-40 40zm0 0"/></svg>