<?xml version="1.0" encoding="UTF-8" standalone="no"?>
<!DOCTYPE svg PUBLIC "-//W3C//DTD SVG 1.1//EN" "http://www.w3.org/Graphics/SVG/1.1/DTD/svg11.dtd">
<svg width="100%" height="100%" viewBox="0 0 512 512" version="1.1" xmlns="http://www.w3.org/2000/svg" xmlns:xlink="http://www.w3.org/1999/xlink" xml:space="preserve" xmlns:serif="http://www.serif.com/" style="fill-rule:evenodd;clip-rule:evenodd;stroke-linejoin:round;stroke-miterlimit:1.41421;">
    <path id="surface1" d="M460.339,340.679L495.366,305.648C517.541,283.476 517.545,247.395 495.37,225.211C488.565,218.41 480.393,213.633 471.663,210.985C478.803,201.285 482.667,189.61 482.667,177.34C482.667,162.149 476.749,147.864 466.003,137.121C455.264,126.379 440.979,120.461 425.784,120.461C425.147,120.461 424.51,120.473 423.874,120.493C424.37,105.309 418.839,89.958 407.272,78.387C395.706,66.825 380.335,61.286 365.175,61.79C365.194,61.157 365.206,60.516 365.206,59.879C365.206,44.684 359.288,30.403 348.546,19.661C326.374,-2.511 290.292,-2.515 268.109,19.661L255.999,31.77L243.894,19.665C233.152,8.919 218.867,3.001 203.671,3.001C188.48,3.001 174.199,8.919 163.457,19.657C151.886,31.227 146.367,46.583 146.871,61.778C146.23,61.754 145.589,61.731 144.949,61.731C129.757,61.731 115.472,67.645 104.722,78.387C93.156,89.961 87.636,105.317 88.14,120.508C87.496,120.485 86.855,120.461 86.211,120.461C71.019,120.461 56.734,126.379 46,137.118C35.254,147.86 29.336,162.145 29.336,177.34C29.336,189.606 33.195,201.281 40.34,210.977C31.48,213.649 23.359,218.484 16.629,225.211C-5.492,247.34 -5.543,283.309 16.48,305.492C16.535,305.551 16.59,305.605 16.644,305.664L51.723,340.734C51.769,340.785 51.82,340.836 51.871,340.886C53.976,342.996 56.226,344.906 58.586,346.636L48.211,357.011C38.121,367.101 32.98,380.847 33.742,395.718C34.469,409.996 40.613,423.597 51.035,434.019L110.367,493.355C121.375,504.359 135.828,509.863 150.285,509.863C164.742,509.863 179.199,504.359 190.203,493.355L217.781,465.773C230.363,468.472 243.179,469.843 256.007,469.843C268.823,469.843 281.644,468.48 294.222,465.781L321.792,493.355C332.8,504.359 347.253,509.863 361.71,509.863C376.163,509.859 390.624,504.359 401.628,493.355L460.964,434.019C482.971,412.011 485.471,378.699 466.534,359.758L453.897,347.121L460.131,340.883C460.202,340.816 460.268,340.75 460.339,340.679ZM185.164,41.368C190.109,36.423 196.683,33.7 203.675,33.7C210.667,33.7 217.242,36.423 222.187,41.368L269.167,88.348C279.374,98.559 279.374,115.168 269.167,125.375C264.222,130.321 257.648,133.043 250.659,133.043L250.656,133.043C243.663,133.039 237.093,130.321 232.148,125.375C232.14,125.368 232.132,125.36 232.128,125.356L185.175,78.403C185.136,78.364 185.101,78.325 185.058,78.29C174.957,68.067 174.992,51.536 185.164,41.368ZM126.363,137.051C116.226,126.836 116.25,110.278 126.429,100.098C131.379,95.153 137.957,92.43 144.949,92.43C151.933,92.43 158.5,95.149 163.445,100.09C163.449,100.09 163.453,100.094 163.453,100.098C163.472,100.114 163.488,100.129 163.503,100.145L210.429,147.071C210.456,147.102 210.492,147.133 210.523,147.164L222.183,158.824C227.128,163.77 229.855,170.344 229.855,177.34C229.855,184.332 227.132,190.906 222.187,195.848C217.242,200.793 210.667,203.516 203.675,203.516C196.683,203.516 190.109,200.793 185.167,195.848C185.105,195.785 185.042,195.727 184.98,195.668L173.468,184.153C173.453,184.137 173.437,184.121 173.421,184.102L126.433,137.121L126.429,137.118C126.406,137.094 126.382,137.071 126.363,137.051ZM67.711,158.824C72.652,153.883 79.222,151.16 86.215,151.16C93.207,151.16 99.781,153.883 104.726,158.828L151.761,205.863C161.918,216.074 161.898,232.645 151.714,242.836C146.769,247.777 140.191,250.5 133.199,250.5C126.207,250.5 119.632,247.777 114.691,242.832C114.629,242.773 114.57,242.711 114.507,242.652L67.855,196C67.804,195.949 67.754,195.895 67.707,195.848C62.762,190.903 60.039,184.332 60.039,177.34C60.035,170.348 62.762,163.774 67.711,158.824ZM38.496,284.101C38.437,284.039 38.379,283.98 38.32,283.922C28.133,273.715 28.141,257.121 38.34,246.922C43.285,241.977 49.859,239.254 56.851,239.254C63.844,239.254 70.422,241.977 75.367,246.926L110.601,282.156C120.808,292.363 120.808,308.973 110.605,319.18C105.66,324.125 99.086,326.847 92.097,326.847L92.093,326.847C90.808,326.847 89.539,326.754 88.289,326.574C88.195,326.554 88.101,326.543 88.008,326.527C82.617,325.687 77.64,323.195 73.691,319.293C73.652,319.25 73.609,319.211 73.57,319.168L38.496,284.101ZM216.949,434.035C216.816,433.999 216.687,433.984 216.558,433.953C216.249,433.878 215.945,433.808 215.636,433.753C215.41,433.714 215.183,433.687 214.953,433.656C214.699,433.624 214.445,433.593 214.187,433.574C213.917,433.55 213.648,433.539 213.378,433.535C213.16,433.527 212.945,433.523 212.726,433.527C212.437,433.531 212.152,433.546 211.867,433.57C211.66,433.585 211.453,433.601 211.245,433.624C210.964,433.656 210.687,433.699 210.41,433.746C210.191,433.781 209.976,433.824 209.757,433.871C209.503,433.925 209.253,433.984 209.003,434.054C208.765,434.117 208.527,434.187 208.288,434.261C208.066,434.335 207.851,434.414 207.632,434.492C207.378,434.589 207.124,434.687 206.878,434.796C206.679,434.882 206.48,434.976 206.285,435.07C206.035,435.191 205.788,435.316 205.546,435.453C205.347,435.562 205.152,435.679 204.956,435.8C204.738,435.937 204.515,436.074 204.3,436.222C204.081,436.374 203.867,436.535 203.656,436.699C203.48,436.832 203.308,436.964 203.136,437.105C202.886,437.316 202.648,437.535 202.413,437.761C202.324,437.847 202.226,437.921 202.136,438.011L168.5,471.648C158.457,481.691 142.121,481.691 132.078,471.648L72.746,412.316C67.707,407.277 64.742,400.828 64.402,394.152C64.094,388.07 66.051,382.589 69.922,378.722L91.117,357.523C91.441,357.527 91.765,357.547 92.093,357.547L92.097,357.547C107.285,357.547 121.566,351.629 132.312,340.886C148.753,324.441 152.992,300.355 145.046,279.957C155.718,277.707 165.527,272.434 173.425,264.543C182.445,255.516 187.796,244.184 189.472,232.426C194.058,233.602 198.82,234.215 203.675,234.215L203.679,234.215C218.867,234.215 233.148,228.301 243.894,217.559C254.636,206.817 260.554,192.531 260.554,177.34C260.554,172.492 259.945,167.739 258.777,163.16C270.886,161.442 282.073,155.887 290.874,147.078C313.05,124.907 313.05,88.825 290.878,66.645L277.706,53.473L289.816,41.368C300.026,31.161 316.636,31.161 326.839,41.364C331.784,46.309 334.507,52.883 334.507,59.876C334.507,66.868 331.784,73.442 326.839,78.387C323.843,81.383 322.343,85.313 322.343,89.243C322.343,93.168 323.839,97.098 326.839,100.094C332.835,106.09 342.55,106.09 348.546,100.094C358.749,89.891 375.358,89.887 385.569,100.094C395.776,110.305 395.772,126.914 385.565,137.121C382.569,140.118 381.069,144.047 381.069,147.973C381.069,151.903 382.565,155.828 385.565,158.824C391.561,164.821 401.276,164.821 407.272,158.828C412.218,153.883 418.796,151.16 425.788,151.157C432.78,151.157 439.354,153.879 444.296,158.824C449.245,163.774 451.967,170.348 451.967,177.34C451.967,184.238 449.315,190.731 444.495,195.649C444.424,195.719 444.354,195.785 444.288,195.856L422.276,217.871C416.796,223.352 416.261,232.059 421.03,238.168L421.819,239.18C426.577,245.277 435.132,246.879 441.772,242.922C452.065,236.789 465.178,238.434 473.663,246.914C483.87,257.125 483.87,273.734 473.663,283.941L438.432,319.168C438.366,319.238 438.296,319.308 438.229,319.379L362.608,395C324.667,432.941 268.855,447.898 216.949,434.035ZM444.831,381.464C451.561,388.199 448.96,402.617 439.26,412.316L379.925,471.648C369.882,481.691 353.546,481.691 343.503,471.648L327.175,455.32C348.397,446.261 367.835,433.187 384.315,416.707L432.19,368.828L444.831,381.464Z" style="fill:white;fill-rule:nonzero;"/>
</svg>
