<?xml version="1.0" encoding="windows-1252"?>
<!-- Generator: Adobe Illustrator 19.0.0, SVG Export Plug-In . SVG Version: 6.00 Build 0)  -->
<svg version="1.1" id="Layer_1" xmlns="http://www.w3.org/2000/svg" xmlns:xlink="http://www.w3.org/1999/xlink" x="0px" y="0px" viewBox="0 0 512 512" style="enable-background:new 0 0 512 512;" xml:space="preserve">
<g>
	<g>
		<path d="M512,329.861c0-25.015-18.894-45.687-43.158-48.528V180.721c0-10.506-8.518-19.024-19.024-19.024h-8.93V97.619    c0-10.506-8.518-19.024-19.024-19.024H237.147c-10.506,0-19.024,8.518-19.024,19.024v64.078h-8.93    c-10.506,0-19.024,8.518-19.024,19.024v100.268h-62.476L98.459,154.799c20.568-1.82,36.753-19.134,36.753-40.167v-20.77    c0-22.241-18.095-40.337-40.335-40.337H40.335C18.094,53.526,0,71.621,0,93.862v20.77c0,22.241,18.094,40.335,40.335,40.335    h19.107l32.184,138.925c-9.722,8.939-15.828,21.753-15.828,35.97c0,16.762,8.486,31.578,21.384,40.385    c-7.369,9.29-11.786,21.021-11.786,33.772c0,30.026,24.429,54.455,54.455,54.455c30.026,0,54.455-24.428,54.455-54.455    c0-9.124-2.266-17.722-6.249-25.285h213.554c-3.982,7.561-6.249,16.161-6.249,25.285c0,30.026,24.429,54.455,54.455,54.455    s54.455-24.428,54.455-54.455c0-13.14-4.679-25.208-12.457-34.626C504.035,360.501,512,346.098,512,329.861z M97.167,114.632    c0,1.262-1.027,2.288-2.288,2.288H40.335c-1.261-0.001-2.288-1.027-2.288-2.288v-20.77c0-1.262,1.027-2.289,2.288-2.289h54.543    c1.261,0,2.288,1.027,2.288,2.289V114.632z M256.171,116.643h146.669v41.543H256.171V116.643z M228.217,199.744h202.576v81.244    H228.217V199.744z M139.852,420.426c-9.046,0-16.407-7.36-16.407-16.407s7.361-16.407,16.407-16.407    c9.046,0,16.407,7.36,16.407,16.407S148.898,420.426,139.852,420.426z M449.818,420.426c-9.046,0-16.407-7.36-16.407-16.407    s7.361-16.407,16.407-16.407s16.407,7.36,16.407,16.407S458.864,420.426,449.818,420.426z M463.127,340.687H124.674    c-5.97,0-10.826-4.856-10.826-10.826c0-5.97,4.856-10.826,10.826-10.826h338.453c5.97,0,10.826,4.856,10.826,10.826    C473.953,335.831,469.096,340.687,463.127,340.687z"/>
	</g>
</g>
<g>
</g>
<g>
</g>
<g>
</g>
<g>
</g>
<g>
</g>
<g>
</g>
<g>
</g>
<g>
</g>
<g>
</g>
<g>
</g>
<g>
</g>
<g>
</g>
<g>
</g>
<g>
</g>
<g>
</g>
</svg>