<?xml version="1.0" encoding="windows-1252"?>
<!-- Generator: Adobe Illustrator 19.0.0, SVG Export Plug-In . SVG Version: 6.00 Build 0)  -->
<svg version="1.1" id="Capa_1" xmlns="http://www.w3.org/2000/svg" xmlns:xlink="http://www.w3.org/1999/xlink" x="0px" y="0px" viewBox="0 0 511.999 511.999" style="enable-background:new 0 0 511.999 511.999;" xml:space="preserve">
<g>
	<g>
		<path d="M255.981,150.881c-33.102,0-60.02,26.918-60.02,60.02s26.918,60.02,60.02,60.02s60.02-26.918,60.02-60.02    S289.083,150.881,255.981,150.881z"/>
	</g>
</g>
<g>
	<g>
		<path d="M296.602,35.237l-30.011-31.01c-6.385-6.385-16.384-4.834-21.218,0l-30.01,31.01c-5.861,5.861-5.861,15.357,0,21.218    c5.861,5.861,15.357,5.861,21.218,0l4.396-4.396v38.802c0,8.294,6.711,15.005,15.005,15.005c8.294,0,14.905-6.711,14.905-15.005    V52.059l4.396,4.396c5.861,5.861,15.457,5.861,21.318,0C302.463,50.595,302.463,41.098,296.602,35.237z"/>
	</g>
</g>
<g>
	<g>
		<path d="M296.6,455.378c-5.861-5.861-15.457-5.861-21.318,0l-4.396,4.396v-38.802c0.001-8.294-6.61-15.005-14.904-15.005    c-8.294,0-15.005,6.711-15.005,15.005v38.802l-4.396-4.396c-5.861-5.861-15.357-5.861-21.218,0s-5.861,15.357,0,21.218    l30.01,31.01c5.982,5.982,15.487,5.731,21.218,0l30.01-31.01C302.461,470.735,302.461,461.238,296.6,455.378z"/>
	</g>
</g>
<g>
	<g>
		<path d="M90.926,240.911H52.124l4.396-4.396c5.861-5.861,5.861-15.357,0-21.218s-15.357-5.861-21.218,0l-31.01,30.01    c-6.387,6.387-4.836,16.383,0,21.218l31.01,30.01c5.861,5.861,15.357,5.861,21.218,0c5.861-5.861,5.861-15.357,0-21.218    l-4.396-4.396h38.802c8.294,0.001,15.005-6.71,15.005-15.004C105.931,247.623,99.22,240.911,90.926,240.911z"/>
	</g>
</g>
<g>
	<g>
		<path d="M507.672,245.308l-31.01-30.01c-5.861-5.861-15.357-5.861-21.218,0s-5.861,15.357,0,21.218l4.396,4.396h-38.802    c-8.294,0-15.005,6.711-15.005,15.005s6.711,15.005,15.005,15.005h38.802l-4.396,4.396c-5.861,5.861-5.861,15.357,0,21.218    s15.357,5.861,21.218,0l31.01-30.01C512.839,261.358,513.853,251.489,507.672,245.308z"/>
	</g>
</g>
<g>
	<g>
		<path d="M148.577,363.32c-5.861-5.861-15.357-5.861-21.218,0l-27.43,27.431v-6.213c0-8.294-6.711-15.005-15.005-15.005    c-8.294,0-15.005,6.711-15.005,15.005v42.436c0,1.988,0.428,3.865,1.128,5.6c2.132,5.285,8.439,9.405,13.877,9.405h42.436    c8.294,0,15.005-6.711,15.005-15.005s-6.711-15.005-15.005-15.005h-6.213l27.431-27.431    C154.439,378.677,154.439,369.182,148.577,363.32z"/>
	</g>
</g>
<g>
	<g>
		<path d="M427.039,69.854h-42.436c-8.294,0-15.005,6.711-15.005,15.005c0,8.294,6.711,15.005,15.005,15.005h6.213l-27.431,27.431    c-5.862,5.861-5.862,15.357,0,21.218c5.861,5.861,15.357,5.861,21.218,0l27.431-27.431v6.213c0,8.294,6.711,15.005,15.005,15.005    c8.294,0,15.005-6.711,15.005-15.005V84.859C442.044,77.527,435.776,69.854,427.039,69.854z"/>
	</g>
</g>
<g>
	<g>
		<path d="M427.039,369.533c-8.294,0-15.005,6.711-15.005,15.005v6.213l-27.431-27.431c-5.861-5.861-15.357-5.861-21.218,0    c-5.861,5.861-5.861,15.357,0,21.218l27.431,27.431h-6.213c-8.294,0-15.005,6.711-15.005,15.005s6.711,15.005,15.005,15.005    h42.436c7.332,0,15.005-6.27,15.005-15.005v-42.436C442.044,376.244,435.332,369.533,427.039,369.533z"/>
	</g>
</g>
<g>
	<g>
		<path d="M148.577,127.295l-27.431-27.431h6.213c8.294,0,15.005-6.711,15.005-15.005c0-8.294-6.711-15.005-15.005-15.005H84.924    c-9.026,0-15.005,8.144-15.005,15.005v42.436c0,8.294,6.711,15.005,15.005,15.005c8.294,0,15.005-6.711,15.005-15.005v-6.213    l27.431,27.431c5.861,5.861,15.356,5.861,21.217,0S154.438,133.156,148.577,127.295z"/>
	</g>
</g>
<g>
	<g>
		<path d="M322.596,270.922c-16.491,18.285-40.109,30.01-66.614,30.01c-26.505,0-50.124-11.725-66.614-30.01    c-14.397,15.964-23.416,36.878-23.416,60.02v15.005c0,8.294,6.711,15.005,15.005,15.005h150.05    c8.294,0,14.905-6.711,14.905-15.005v-15.005C345.911,307.8,336.992,286.886,322.596,270.922z"/>
	</g>
</g>
<g>
</g>
<g>
</g>
<g>
</g>
<g>
</g>
<g>
</g>
<g>
</g>
<g>
</g>
<g>
</g>
<g>
</g>
<g>
</g>
<g>
</g>
<g>
</g>
<g>
</g>
<g>
</g>
<g>
</g>
</svg>